<svg class="svg-icon" style="width: 1em; height: 1em;vertical-align: middle;fill: currentColor;overflow: hidden;" viewBox="0 0 1024 1024" version="1.1" xmlns="http://www.w3.org/2000/svg"><path d="M449.376731 437.437817c-8.572236 5.121648-15.429411 11.394515-20.572548 18.806321-5.143137 7.424086-7.714705 16.252149-7.714705 26.482141 0 9.210779 1.849114 16.767895 5.571902 22.644743 3.709485 5.889127 9.991562 11.261485 18.85851 16.119119 8.852622 4.869914 20.572548 9.474792 35.145451 13.81668 2.831488 0.846274 5.812379 1.716084 8.93551 2.610454L489.600851 424.285263c-3.89061 0.529049-7.728008 1.199315-11.508102 2.023076C467.51074 428.610778 457.948967 432.328449 449.376731 437.437817z"  /><path d="M588.671217 628.955712c-8.290827-5.876847-19.862373-11.514241-34.716686-16.887622-6.109138-2.208295-12.95301-4.436032-20.507056-6.686283l0 133.818775c18.307971-2.535753 34.434254-8.438183 48.366567-17.747199 19.138896-12.786211 28.716019-29.169343 28.716019-49.127907 0-9.210779-1.579985-17.270339-4.713348-24.179702C602.666976 641.237433 596.948741 634.844839 588.671217 628.955712z"  /><path d="M637.607766 253.888408l108.787682-186.695053-469.744617 0 111.330598 185.849802c-148.377352 49.076742-254.959809 184.081529-254.959809 342.947769 0 200.322421 169.461553 362.714975 378.50152 362.714975 209.04099 0 378.502543-162.392554 378.502543-362.714975C890.025683 438.032358 784.659937 303.658951 637.607766 253.888408zM661.1039 719.9174c-9.723455 15.352663-22.581298 28.401864-38.573527 39.148625-16.005532 10.746762-33.859155 19.070334-53.574173 24.947182-11.685133 3.483334-23.52274 5.930059-35.507702 7.351432l0 27.892257c0 12.107759-9.815553 21.923312-21.924335 21.923312s-21.923312-9.815553-21.923312-21.923312l0-27.034726c-16.762779-1.107217-32.461319-3.712555-47.080272-7.825222-20.010753-5.637394-37.006845-12.533454-51.003628-20.72502-14.010085-8.18031-24.859177-16.503882-32.573883-24.948205-7.714705-8.443299-11.57257-15.471366-11.57257-21.10876 0-6.14086 1.715061-13.049201 5.143137-20.72502 3.429099-7.676843 9.710153-11.250228 18.85851-10.746762 5.705955 0 11.7056 2.950192 18.000979 8.827039 6.282077 5.889127 14.425547 12.161994 24.430412 18.806321 9.992585 6.656607 22.849404 12.797467 38.573527 18.422581 10.538007 3.781116 22.953781 6.282077 37.222763 7.52437L489.599827 593.910545c-21.082154-5.122671-39.499619-10.458189-55.223742-16.000416-17.439184-6.14086-31.864732-13.300934-43.288922-21.493523-11.438517-8.179286-19.862373-18.038842-25.287943-29.55206-5.436826-11.514241-8.143471-25.714661-8.143471-42.602284 0-17.391089 3.991917-33.006741 12.001335-46.824445 7.996115-13.81668 18.993586-25.582655 33.002648-35.310204 13.996782-9.715269 30.283724-17.139356 48.859801-22.25998 12.138458-3.341095 24.835641-5.587252 38.080294-6.746658l0-22.745027c0-12.107759 9.815553-21.923312 21.923312-21.923312s21.924335 9.815553 21.924335 21.923312l0 22.614044c13.684674 0.985444 26.530236 2.883677 38.508036 5.726421 18.282389 4.353145 33.994232 9.858532 47.145763 16.502859 13.139252 6.656607 23.426549 13.696953 30.858822 21.10876 7.419993 7.424086 11.143805 14.464433 11.143805 21.10876 0 8.191566-2.00875 15.867386-5.999644 23.028483-4.00522 7.172353-10.580986 10.745738-19.716041 10.745738-4.00522 0-8.009418-1.402953-12.001335-4.221138-4.004197-2.806929-9.723455-7.028067-17.144472-12.665461-13.152555-9.210779-26.290783-16.623609-39.430034-22.261003-8.729825-3.733021-19.859303-6.334265-33.365922-7.817036L533.446451 549.641295c0.832971 0.211824 1.661849 0.421602 2.506077 0.635473 19.421328 5.121648 37.715997 10.627035 54.859445 16.503882 17.144472 5.889127 31.998785 13.313214 44.575218 22.261003 12.56313 8.959046 22.420639 19.705807 29.572526 32.239262 7.139607 12.545734 10.716063 28.282137 10.716063 47.208185C675.676803 687.426405 670.814052 704.56576 661.1039 719.9174z"  /></svg>