<?xml version="1.0" encoding="iso-8859-1"?>
<!-- Uploaded to: SVG Repo, www.svgrepo.com, Generator: SVG Repo Mixer Tools -->
<!DOCTYPE svg PUBLIC "-//W3C//DTD SVG 1.1//EN" "http://www.w3.org/Graphics/SVG/1.1/DTD/svg11.dtd">
<svg fill="#000000" height="800px" width="800px" version="1.1" id="Capa_1" xmlns="http://www.w3.org/2000/svg" xmlns:xlink="http://www.w3.org/1999/xlink" 
	 viewBox="0 0 262.488 262.488" xml:space="preserve">
<g>
	<path d="M83.744,158.244c0,4.971,4.029,9,9,9h77c4.971,0,9-4.029,9-9s-4.029-9-9-9h-77
		C87.773,149.244,83.744,153.273,83.744,158.244z"/>
	<path d="M38.744,115.244h10c4.971,0,9-4.029,9-9s-4.029-9-9-9h-10c-4.971,0-9,4.029-9,9S33.773,115.244,38.744,115.244z"/>
	<path d="M73.744,115.244h10c4.971,0,9-4.029,9-9s-4.029-9-9-9h-10c-4.971,0-9,4.029-9,9S68.773,115.244,73.744,115.244z"/>
	<path d="M108.744,115.244h10c4.971,0,9-4.029,9-9s-4.029-9-9-9h-10c-4.971,0-9,4.029-9,9S103.773,115.244,108.744,115.244z"/>
	<path d="M143.744,115.244h10c4.971,0,9-4.029,9-9s-4.029-9-9-9h-10c-4.971,0-9,4.029-9,9S138.773,115.244,143.744,115.244z"/>
	<path d="M178.744,115.244h10c4.971,0,9-4.029,9-9s-4.029-9-9-9h-10c-4.971,0-9,4.029-9,9S173.773,115.244,178.744,115.244z"/>
	<path d="M213.744,115.244h10c4.971,0,9-4.029,9-9s-4.029-9-9-9h-10c-4.971,0-9,4.029-9,9S208.773,115.244,213.744,115.244z"/>
	<path d="M38.744,138.244h10c4.971,0,9-4.029,9-9s-4.029-9-9-9h-10c-4.971,0-9,4.029-9,9S33.773,138.244,38.744,138.244z"/>
	<path d="M73.744,138.244h10c4.971,0,9-4.029,9-9s-4.029-9-9-9h-10c-4.971,0-9,4.029-9,9S68.773,138.244,73.744,138.244z"/>
	<path d="M108.744,138.244h10c4.971,0,9-4.029,9-9s-4.029-9-9-9h-10c-4.971,0-9,4.029-9,9S103.773,138.244,108.744,138.244z"/>
	<path d="M143.744,138.244h10c4.971,0,9-4.029,9-9s-4.029-9-9-9h-10c-4.971,0-9,4.029-9,9S138.773,138.244,143.744,138.244z"/>
	<path d="M178.744,138.244h10c4.971,0,9-4.029,9-9s-4.029-9-9-9h-10c-4.971,0-9,4.029-9,9S173.773,138.244,178.744,138.244z"/>
	<path d="M213.744,138.244h10c4.971,0,9-4.029,9-9s-4.029-9-9-9h-10c-4.971,0-9,4.029-9,9S208.773,138.244,213.744,138.244z"/>
	<path d="M253.488,68.123H9c-4.971,0-9,4.029-9,9v108.242c0,4.971,4.029,9,9,9h244.488c4.971,0,9-4.029,9-9V77.123
		C262.488,72.152,258.459,68.123,253.488,68.123z M244.488,176.365H18V86.123h226.488V176.365z"/>
</g>
</svg>